<svg width="512" height="512" viewBox="0 0 512 512" fill="none" xmlns="http://www.w3.org/2000/svg">
  <!-- Medium hair - longer strokes -->
  <g stroke="#8B4513" stroke-width="3" stroke-linecap="round">
    <!-- Top of head - main strokes -->
    <line x1="256" y1="120" x2="256" y2="90" />
    <line x1="276" y1="125" x2="285" y2="95" />
    <line x1="236" y1="125" x2="227" y2="95" />
    <line x1="296" y1="135" x2="310" y2="105" />
    <line x1="216" y1="135" x2="202" y2="105" />
    <line x1="316" y1="150" x2="335" y2="120" />
    <line x1="196" y1="150" x2="177" y2="120" />
    <line x1="336" y1="170" x2="360" y2="140" />
    <line x1="176" y1="170" x2="152" y2="140" />
    
    <!-- Sides of head - main strokes -->
    <line x1="356" y1="200" x2="385" y2="175" />
    <line x1="156" y1="200" x2="127" y2="175" />
    <line x1="366" y1="230" x2="400" y2="215" />
    <line x1="146" y1="230" x2="112" y2="215" />
    <line x1="376" y1="260" x2="410" y2="255" />
    <line x1="136" y1="260" x2="102" y2="255" />
    
    <!-- Back of head - main strokes -->
    <line x1="376" y1="290" x2="410" y2="300" />
    <line x1="136" y1="290" x2="102" y2="300" />
    <line x1="366" y1="320" x2="400" y2="340" />
    <line x1="146" y1="320" x2="112" y2="340" />
    
    <!-- Bangs - main strokes -->
    <line x1="256" y1="120" x2="256" y2="140" />
    <line x1="276" y1="125" x2="270" y2="145" />
    <line x1="236" y1="125" x2="242" y2="145" />
    
    <!-- Additional hair for better coverage - main strokes -->
    <line x1="266" y1="120" x2="268" y2="90" />
    <line x1="246" y1="120" x2="244" y2="90" />
    <line x1="286" y1="130" x2="298" y2="100" />
    <line x1="226" y1="130" x2="214" y2="100" />
    <line x1="306" y1="140" x2="322" y2="110" />
    <line x1="206" y1="140" x2="190" y2="110" />
    <line x1="326" y1="160" x2="348" y2="130" />
    <line x1="186" y1="160" x2="164" y2="130" />
    
    <!-- Top of head - additional strokes for fullness -->
    <line x1="251" y1="120" x2="250" y2="85" />
    <line x1="261" y1="120" x2="262" y2="85" />
    <line x1="271" y1="123" x2="278" y2="90" />
    <line x1="241" y1="123" x2="234" y2="90" />
    <line x1="281" y1="127" x2="292" y2="97" />
    <line x1="231" y1="127" x2="220" y2="97" />
    <line x1="291" y1="133" x2="304" y2="103" />
    <line x1="221" y1="133" x2="208" y2="103" />
    <line x1="301" y1="138" x2="316" y2="108" />
    <line x1="211" y1="138" x2="196" y2="108" />
    <line x1="311" y1="145" x2="328" y2="115" />
    <line x1="201" y1="145" x2="184" y2="115" />
    <line x1="321" y1="155" x2="342" y2="125" />
    <line x1="191" y1="155" x2="170" y2="125" />
    <line x1="331" y1="165" x2="354" y2="135" />
    <line x1="181" y1="165" x2="158" y2="135" />
    <line x1="341" y1="175" x2="368" y2="145" />
    <line x1="171" y1="175" x2="144" y2="145" />
    <line x1="351" y1="190" x2="378" y2="165" />
    <line x1="161" y1="190" x2="134" y2="165" />
    
    <!-- Sides of head - additional strokes for fullness -->
    <line x1="361" y1="210" x2="392" y2="185" />
    <line x1="151" y1="210" x2="120" y2="185" />
    <line x1="371" y1="240" x2="405" y2="225" />
    <line x1="141" y1="240" x2="107" y2="225" />
    <line x1="376" y1="270" x2="415" y2="265" />
    <line x1="136" y1="270" x2="97" y2="265" />
    <line x1="371" y1="300" x2="405" y2="310" />
    <line x1="141" y1="300" x2="107" y2="310" />
    <line x1="361" y1="310" x2="395" y2="330" />
    <line x1="151" y1="310" x2="117" y2="330" />
    
    <!-- Additional bangs for fullness -->
    <line x1="266" y1="120" x2="264" y2="145" />
    <line x1="246" y1="120" x2="248" y2="145" />
    <line x1="286" y1="130" x2="278" y2="150" />
    <line x1="226" y1="130" x2="234" y2="150" />
    <line x1="296" y1="135" x2="286" y2="155" />
    <line x1="216" y1="135" x2="226" y2="155" />
    
    <!-- Intermediate strokes for even more fullness -->
    <line x1="256" y1="122" x2="257" y2="87" />
    <line x1="266" y1="122" x2="269" y2="92" />
    <line x1="246" y1="122" x2="243" y2="92" />
    <line x1="276" y1="127" x2="283" y2="97" />
    <line x1="236" y1="127" x2="229" y2="97" />
    <line x1="286" y1="132" x2="297" y2="102" />
    <line x1="226" y1="132" x2="215" y2="102" />
    <line x1="296" y1="137" x2="309" y2="107" />
    <line x1="216" y1="137" x2="203" y2="107" />
    <line x1="306" y1="142" x2="321" y2="112" />
    <line x1="206" y1="142" x2="191" y2="112" />
    <line x1="316" y1="152" x2="335" y2="122" />
    <line x1="196" y1="152" x2="177" y2="122" />
    <line x1="326" y1="162" x2="347" y2="132" />
    <line x1="186" y1="162" x2="165" y2="132" />
    <line x1="336" y1="172" x2="359" y2="142" />
    <line x1="176" y1="172" x2="153" y2="142" />
    <line x1="346" y1="185" x2="373" y2="160" />
    <line x1="166" y1="185" x2="139" y2="160" />
    <line x1="356" y1="205" x2="385" y2="180" />
    <line x1="156" y1="205" x2="127" y2="180" />
    <line x1="366" y1="235" x2="400" y2="220" />
    <line x1="146" y1="235" x2="112" y2="220" />
    <line x1="376" y1="265" x2="410" y2="260" />
    <line x1="136" y1="265" x2="102" y2="260" />
    <line x1="376" y1="295" x2="410" y2="305" />
    <line x1="136" y1="295" x2="102" y2="305" />
    <line x1="366" y1="315" x2="400" y2="335" />
    <line x1="146" y1="315" x2="112" y2="335" />
    
    <!-- Additional bangs variations -->
    <line x1="261" y1="120" x2="260" y2="142" />
    <line x1="251" y1="120" x2="252" y2="142" />
    <line x1="271" y1="123" x2="267" y2="147" />
    <line x1="241" y1="123" x2="245" y2="147" />
    <line x1="281" y1="127" x2="274" y2="152" />
    <line x1="231" y1="127" x2="238" y2="152" />
    <line x1="291" y1="133" x2="282" y2="157" />
    <line x1="221" y1="133" x2="230" y2="157" />
  </g>
</svg> 