<svg width="512" height="512" viewBox="0 0 512 512" fill="none" xmlns="http://www.w3.org/2000/svg">
  <!-- Hair background fill -->
  <path d="M256 36 
           C150 36, 66 120, 66 226
           C66 260, 76 292, 96 320
           C76 350, 66 390, 66 432
           C66 484, 96 512, 136 512
           L376 512
           C416 512, 446 484, 446 432
           C446 390, 436 350, 416 320
           C436 292, 446 260, 446 226
           C446 120, 362 36, 256 36Z" 
        fill="#8B4513" />
  
  <!-- Luxurious hair - detailed flowing paths -->
  <g stroke="#6B3E26" stroke-width="2" stroke-linecap="round">
    <!-- Top and sides of head - main flowing hair -->
    <path d="M256 120 C256 70, 256 40, 256 20" />
    <path d="M276 125 C290 80, 300 50, 310 20" />
    <path d="M236 125 C222 80, 212 50, 202 20" />
    <path d="M296 135 C320 90, 335 60, 350 30" />
    <path d="M216 135 C192 90, 177 60, 162 30" />
    <path d="M316 150 C345 110, 365 80, 385 50" />
    <path d="M196 150 C167 110, 147 80, 127 50" />
    
    <!-- Side hair - main longer flowing -->
    <path d="M336 170 C370 130, 390 100, 410 70" />
    <path d="M176 170 C142 130, 122 100, 102 70" />
    <path d="M356 200 C395 165, 420 130, 445 95" />
    <path d="M156 200 C117 165, 92 130, 67 95" />
    
    <!-- Back hair - main reaching down -->
    <path d="M366 230 C410 210, 440 190, 470 170" />
    <path d="M146 230 C102 210, 72 190, 42 170" />
    <path d="M376 260 C420 250, 450 240, 480 230" />
    <path d="M136 260 C92 250, 62 240, 32 230" />
    <path d="M376 290 C420 300, 450 310, 480 320" />
    <path d="M136 290 C92 300, 62 310, 32 320" />
    <path d="M366 320 C410 350, 440 380, 470 410" />
    <path d="M146 320 C102 350, 72 380, 42 410" />
    <path d="M356 350 C400 390, 430 430, 460 470" />
    <path d="M156 350 C112 390, 82 430, 52 470" />
    <path d="M336 380 C380 430, 410 480, 440 510" />
    <path d="M176 380 C132 430, 102 480, 72 510" />
    
    <!-- Main bangs -->
    <path d="M256 120 C256 150, 256 180, 256 210" />
    <path d="M276 125 C270 155, 265 185, 260 215" />
    <path d="M236 125 C242 155, 247 185, 252 215" />
    <path d="M296 135 C285 165, 275 195, 265 225" />
    <path d="M216 135 C227 165, 237 195, 247 225" />
    
    <!-- Additional hair for better coverage - main strokes -->
    <path d="M266 120 C270 80, 275 50, 280 20" />
    <path d="M246 120 C242 80, 237 50, 232 20" />
    <path d="M286 130 C300 85, 310 55, 320 25" />
    <path d="M226 130 C212 85, 202 55, 192 25" />
    
    <!-- Top of head - additional strokes for fullness -->
    <path d="M251 120 C250 75, 250 45, 250 15" />
    <path d="M261 120 C262 75, 262 45, 262 15" />
    <path d="M271 123 C282 78, 290 48, 298 18" />
    <path d="M241 123 C230 78, 222 48, 214 18" />
    <path d="M281 127 C295 82, 305 52, 315 22" />
    <path d="M231 127 C217 82, 207 52, 197 22" />
    <path d="M291 133 C312 88, 325 58, 338 28" />
    <path d="M221 133 C200 88, 187 58, 174 28" />
    <path d="M301 138 C325 93, 340 63, 355 33" />
    <path d="M211 138 C187 93, 172 63, 157 33" />
    <path d="M311 145 C338 105, 355 75, 372 45" />
    <path d="M201 145 C174 105, 157 75, 140 45" />
    <path d="M321 155 C350 115, 370 85, 390 55" />
    <path d="M191 155 C162 115, 142 85, 122 55" />
    <path d="M331 165 C362 125, 382 95, 402 65" />
    <path d="M181 165 C150 125, 130 95, 110 65" />
    
    <!-- Side hair - additional longer flowing -->
    <path d="M346 180 C380 140, 400 110, 420 80" />
    <path d="M166 180 C132 140, 112 110, 92 80" />
    <path d="M361 210 C400 175, 425 140, 450 105" />
    <path d="M151 210 C112 175, 87 140, 62 105" />
    <path d="M371 240 C415 220, 445 200, 475 180" />
    <path d="M141 240 C97 220, 67 200, 37 180" />
    <path d="M381 270 C425 260, 455 250, 485 240" />
    <path d="M131 270 C87 260, 57 250, 27 240" />
    <path d="M381 300 C425 310, 455 320, 485 330" />
    <path d="M131 300 C87 310, 57 320, 27 330" />
    <path d="M371 330 C415 360, 445 390, 475 420" />
    <path d="M141 330 C97 360, 67 390, 37 420" />
    <path d="M361 360 C405 400, 435 440, 465 480" />
    <path d="M151 360 C107 400, 77 440, 47 480" />
    <path d="M346 390 C390 440, 420 490, 450 510" />
    <path d="M166 390 C122 440, 92 490, 62 510" />
    
    <!-- Additional bangs for fullness -->
    <path d="M266 120 C264 150, 262 180, 260 210" />
    <path d="M246 120 C248 150, 250 180, 252 210" />
    <path d="M286 130 C278 160, 272 190, 266 220" />
    <path d="M226 130 C234 160, 240 190, 246 220" />
    <path d="M306 140 C294 170, 284 200, 274 230" />
    <path d="M206 140 C218 170, 228 200, 238 230" />
    
    <!-- Intermediate strokes for even more fullness -->
    <path d="M256 122 C257 77, 258 47, 259 17" />
    <path d="M266 122 C269 82, 272 52, 275 22" />
    <path d="M246 122 C243 82, 240 52, 237 22" />
    <path d="M276 127 C288 82, 296 52, 304 22" />
    <path d="M236 127 C224 82, 216 52, 208 22" />
    <path d="M286 132 C303 87, 315 57, 327 27" />
    <path d="M226 132 C209 87, 197 57, 185 27" />
    <path d="M296 137 C318 92, 332 62, 346 32" />
    <path d="M216 137 C194 92, 180 62, 166 32" />
    <path d="M306 142 C332 97, 348 67, 364 37" />
    <path d="M206 142 C180 97, 164 67, 148 37" />
    <path d="M316 152 C343 112, 360 82, 377 52" />
    <path d="M196 152 C169 112, 152 82, 135 52" />
    <path d="M326 162 C355 122, 375 92, 395 62" />
    <path d="M186 162 C157 122, 137 92, 117 62" />
    
    <!-- Additional flowing variations -->
    <path d="M261 120 C260 152, 259 184, 258 216" />
    <path d="M251 120 C252 152, 253 184, 254 216" />
    <path d="M271 123 C267 157, 264 191, 261 225" />
    <path d="M241 123 C245 157, 248 191, 251 225" />
    <path d="M281 127 C274 162, 269 197, 264 232" />
    <path d="M231 127 C238 162, 243 197, 248 232" />
    <path d="M291 133 C282 168, 275 203, 268 238" />
    <path d="M221 133 C230 168, 237 203, 244 238" />
    
    <!-- Additional side flowing variations -->
    <path d="M341 175 C375 135, 395 105, 415 75" />
    <path d="M171 175 C137 135, 117 105, 97 75" />
    <path d="M351 195 C390 160, 415 125, 440 90" />
    <path d="M161 195 C122 160, 97 125, 72 90" />
    <path d="M361 220 C405 200, 435 180, 465 160" />
    <path d="M151 220 C107 200, 77 180, 47 160" />
    <path d="M371 250 C415 240, 445 230, 475 220" />
    <path d="M141 250 C97 240, 67 230, 37 220" />
    <path d="M371 280 C415 290, 445 300, 475 310" />
    <path d="M141 280 C97 290, 67 300, 37 310" />
    <path d="M361 310 C405 340, 435 370, 465 400" />
    <path d="M151 310 C107 340, 77 370, 47 400" />
    <path d="M351 340 C395 380, 425 420, 455 460" />
    <path d="M161 340 C117 380, 87 420, 57 460" />
    <path d="M341 370 C385 420, 415 470, 445 510" />
    <path d="M171 370 C127 420, 97 470, 67 510" />
    
    <!-- Additional bangs variations -->
    <path d="M261 120 C260 150, 259 180, 258 210" />
    <path d="M251 120 C252 150, 253 180, 254 210" />
    <path d="M271 123 C267 153, 264 183, 261 213" />
    <path d="M241 123 C245 153, 248 183, 251 213" />
    <path d="M281 127 C274 157, 269 187, 264 217" />
    <path d="M231 127 C238 157, 243 187, 248 217" />
    <path d="M291 133 C282 163, 275 193, 268 223" />
    <path d="M221 133 C230 163, 237 193, 244 223" />
    <path d="M301 138 C290 168, 281 198, 272 228" />
    <path d="M211 138 C222 168, 231 198, 240 228" />
    <path d="M311 145 C298 175, 287 205, 276 235" />
    <path d="M201 145 C214 175, 225 205, 236 235" />
  </g>
</svg> 