<svg width="512" height="512" viewBox="0 0 512 512" fill="none" xmlns="http://www.w3.org/2000/svg">
  <!-- Short hair - small strokes -->
  <g stroke="#8B4513" stroke-width="2" stroke-linecap="round">
    <!-- Top of head - main strokes -->
    <line x1="256" y1="120" x2="256" y2="105" />
    <line x1="276" y1="125" x2="280" y2="110" />
    <line x1="236" y1="125" x2="232" y2="110" />
    <line x1="296" y1="135" x2="304" y2="120" />
    <line x1="216" y1="135" x2="208" y2="120" />
    <line x1="316" y1="150" x2="328" y2="135" />
    <line x1="196" y1="150" x2="184" y2="135" />
    <line x1="336" y1="170" x2="352" y2="155" />
    <line x1="176" y1="170" x2="160" y2="155" />
    
    <!-- Sides of head - main strokes -->
    <line x1="356" y1="200" x2="376" y2="190" />
    <line x1="156" y1="200" x2="136" y2="190" />
    <line x1="366" y1="230" x2="386" y2="225" />
    <line x1="146" y1="230" x2="126" y2="225" />
    <line x1="376" y1="260" x2="396" y2="260" />
    <line x1="136" y1="260" x2="116" y2="260" />
    
    <!-- Back of head - main strokes -->
    <line x1="376" y1="290" x2="396" y2="295" />
    <line x1="136" y1="290" x2="116" y2="295" />
    <line x1="366" y1="320" x2="386" y2="330" />
    <line x1="146" y1="320" x2="126" y2="330" />
    
    <!-- Additional hair for better coverage - main strokes -->
    <line x1="266" y1="120" x2="268" y2="105" />
    <line x1="246" y1="120" x2="244" y2="105" />
    <line x1="286" y1="130" x2="292" y2="115" />
    <line x1="226" y1="130" x2="220" y2="115" />
    <line x1="306" y1="140" x2="316" y2="125" />
    <line x1="206" y1="140" x2="196" y2="125" />
    <line x1="326" y1="160" x2="340" y2="145" />
    <line x1="186" y1="160" x2="172" y2="145" />
    <line x1="346" y1="185" x2="364" y2="175" />
    <line x1="166" y1="185" x2="148" y2="175" />
    
    <!-- Top of head - additional strokes for fullness -->
    <line x1="251" y1="120" x2="250" y2="103" />
    <line x1="261" y1="120" x2="262" y2="103" />
    <line x1="271" y1="123" x2="274" y2="106" />
    <line x1="241" y1="123" x2="238" y2="106" />
    <line x1="281" y1="127" x2="286" y2="112" />
    <line x1="231" y1="127" x2="226" y2="112" />
    <line x1="291" y1="133" x2="298" y2="118" />
    <line x1="221" y1="133" x2="214" y2="118" />
    <line x1="301" y1="138" x2="310" y2="123" />
    <line x1="211" y1="138" x2="202" y2="123" />
    <line x1="311" y1="145" x2="322" y2="130" />
    <line x1="201" y1="145" x2="190" y2="130" />
    <line x1="321" y1="155" x2="334" y2="140" />
    <line x1="191" y1="155" x2="178" y2="140" />
    <line x1="331" y1="165" x2="346" y2="150" />
    <line x1="181" y1="165" x2="166" y2="150" />
    <line x1="341" y1="175" x2="358" y2="160" />
    <line x1="171" y1="175" x2="154" y2="160" />
    <line x1="351" y1="190" x2="370" y2="180" />
    <line x1="161" y1="190" x2="142" y2="180" />
    
    <!-- Sides of head - additional strokes for fullness -->
    <line x1="361" y1="210" x2="381" y2="200" />
    <line x1="151" y1="210" x2="131" y2="200" />
    <line x1="371" y1="240" x2="391" y2="235" />
    <line x1="141" y1="240" x2="121" y2="235" />
    <line x1="376" y1="270" x2="396" y2="270" />
    <line x1="136" y1="270" x2="116" y2="270" />
    <line x1="371" y1="300" x2="391" y2="305" />
    <line x1="141" y1="300" x2="121" y2="305" />
    <line x1="361" y1="310" x2="381" y2="320" />
    <line x1="151" y1="310" x2="131" y2="320" />
    
    <!-- Intermediate strokes for even more fullness -->
    <line x1="256" y1="122" x2="257" y2="107" />
    <line x1="266" y1="122" x2="269" y2="107" />
    <line x1="246" y1="122" x2="243" y2="107" />
    <line x1="276" y1="127" x2="281" y2="112" />
    <line x1="236" y1="127" x2="231" y2="112" />
    <line x1="286" y1="132" x2="293" y2="117" />
    <line x1="226" y1="132" x2="219" y2="117" />
    <line x1="296" y1="137" x2="305" y2="122" />
    <line x1="216" y1="137" x2="207" y2="122" />
    <line x1="306" y1="142" x2="317" y2="127" />
    <line x1="206" y1="142" x2="195" y2="127" />
    <line x1="316" y1="152" x2="329" y2="137" />
    <line x1="196" y1="152" x2="183" y2="137" />
    <line x1="326" y1="162" x2="341" y2="147" />
    <line x1="186" y1="162" x2="171" y2="147" />
    <line x1="336" y1="172" x2="353" y2="157" />
    <line x1="176" y1="172" x2="159" y2="157" />
    <line x1="346" y1="187" x2="365" y2="177" />
    <line x1="166" y1="187" x2="147" y2="177" />
    <line x1="356" y1="202" x2="376" y2="192" />
    <line x1="156" y1="202" x2="136" y2="192" />
    <line x1="366" y1="232" x2="386" y2="227" />
    <line x1="146" y1="232" x2="126" y2="227" />
    <line x1="376" y1="262" x2="396" y2="262" />
    <line x1="136" y1="262" x2="116" y2="262" />
    <line x1="376" y1="292" x2="396" y2="297" />
    <line x1="136" y1="292" x2="116" y2="297" />
    <line x1="366" y1="322" x2="386" y2="332" />
    <line x1="146" y1="322" x2="126" y2="332" />
  </g>
</svg> 