<svg width="512" height="512" viewBox="0 0 512 512" fill="none" xmlns="http://www.w3.org/2000/svg">
  <!-- Long hair - curved paths -->
  <g stroke="#8B4513" stroke-width="3" stroke-linecap="round">
    <!-- Top and sides of head - main flowing hair -->
    <path d="M256 120 C256 80, 256 60, 256 40" />
    <path d="M276 125 C290 90, 300 70, 310 50" />
    <path d="M236 125 C222 90, 212 70, 202 50" />
    <path d="M296 135 C320 100, 335 80, 350 60" />
    <path d="M216 135 C192 100, 177 80, 162 60" />
    <path d="M316 150 C345 120, 365 100, 385 80" />
    <path d="M196 150 C167 120, 147 100, 127 80" />
    
    <!-- Side hair - main longer flowing -->
    <path d="M336 170 C370 140, 390 120, 410 100" />
    <path d="M176 170 C142 140, 122 120, 102 100" />
    <path d="M356 200 C395 175, 420 150, 435 125" />
    <path d="M156 200 C117 175, 92 150, 77 125" />
    
    <!-- Back hair - main reaching down -->
    <path d="M366 230 C410 220, 430 210, 450 200" />
    <path d="M146 230 C102 220, 82 210, 62 200" />
    <path d="M376 260 C420 260, 440 260, 460 260" />
    <path d="M136 260 C92 260, 72 260, 52 260" />
    <path d="M376 290 C420 300, 440 310, 460 320" />
    <path d="M136 290 C92 300, 72 310, 52 320" />
    <path d="M366 320 C410 340, 430 360, 450 380" />
    <path d="M146 320 C102 340, 82 360, 62 380" />
    
    <!-- Main bangs -->
    <path d="M256 120 C256 140, 256 160, 256 180" />
    <path d="M276 125 C270 145, 265 165, 260 185" />
    <path d="M236 125 C242 145, 247 165, 252 185" />
    
    <!-- Additional hair for better coverage - main strokes -->
    <path d="M266 120 C270 90, 275 70, 280 50" />
    <path d="M246 120 C242 90, 237 70, 232 50" />
    <path d="M286 130 C300 95, 310 75, 320 55" />
    <path d="M226 130 C212 95, 202 75, 192 55" />
    <path d="M306 140 C330 105, 345 85, 360 65" />
    <path d="M206 140 C182 105, 167 85, 152 65" />
    
    <!-- Top of head - additional strokes for fullness -->
    <path d="M251 120 C250 85, 250 65, 250 45" />
    <path d="M261 120 C262 85, 262 65, 262 45" />
    <path d="M271 123 C282 88, 290 68, 298 48" />
    <path d="M241 123 C230 88, 222 68, 214 48" />
    <path d="M281 127 C295 92, 305 72, 315 52" />
    <path d="M231 127 C217 92, 207 72, 197 52" />
    <path d="M291 133 C312 98, 325 78, 338 58" />
    <path d="M221 133 C200 98, 187 78, 174 58" />
    <path d="M301 138 C325 103, 340 83, 355 63" />
    <path d="M211 138 C187 103, 172 83, 157 63" />
    <path d="M311 145 C338 115, 355 95, 372 75" />
    <path d="M201 145 C174 115, 157 95, 140 75" />
    <path d="M321 155 C350 125, 370 105, 390 85" />
    <path d="M191 155 C162 125, 142 105, 122 85" />
    <path d="M331 165 C362 135, 382 115, 402 95" />
    <path d="M181 165 C150 135, 130 115, 110 95" />
    
    <!-- Side hair - additional longer flowing -->
    <path d="M346 180 C380 150, 400 130, 420 110" />
    <path d="M166 180 C132 150, 112 130, 92 110" />
    <path d="M361 210 C400 185, 425 160, 440 135" />
    <path d="M151 210 C112 185, 87 160, 72 135" />
    <path d="M371 240 C415 230, 435 220, 455 210" />
    <path d="M141 240 C97 230, 77 220, 57 210" />
    <path d="M381 270 C425 270, 445 270, 465 270" />
    <path d="M131 270 C87 270, 67 270, 47 270" />
    <path d="M381 300 C425 310, 445 320, 465 330" />
    <path d="M131 300 C87 310, 67 320, 47 330" />
    <path d="M371 330 C415 350, 435 370, 455 390" />
    <path d="M141 330 C97 350, 77 370, 57 390" />
    
    <!-- Additional bangs for fullness -->
    <path d="M266 120 C264 140, 262 160, 260 180" />
    <path d="M246 120 C248 140, 250 160, 252 180" />
    <path d="M286 130 C278 150, 272 170, 266 190" />
    <path d="M226 130 C234 150, 240 170, 246 190" />
    <path d="M296 135 C286 155, 278 175, 270 195" />
    <path d="M216 135 C226 155, 234 175, 242 195" />
    <path d="M306 140 C294 160, 284 180, 274 200" />
    <path d="M206 140 C218 160, 228 180, 238 200" />
    
    <!-- Intermediate strokes for even more fullness -->
    <path d="M256 122 C257 87, 258 67, 259 47" />
    <path d="M266 122 C269 92, 272 72, 275 52" />
    <path d="M246 122 C243 92, 240 72, 237 52" />
    <path d="M276 127 C288 92, 296 72, 304 52" />
    <path d="M236 127 C224 92, 216 72, 208 52" />
    <path d="M286 132 C303 97, 315 77, 327 57" />
    <path d="M226 132 C209 97, 197 77, 185 57" />
    <path d="M296 137 C318 102, 332 82, 346 62" />
    <path d="M216 137 C194 102, 180 82, 166 62" />
    <path d="M306 142 C332 107, 348 87, 364 67" />
    <path d="M206 142 C180 107, 164 87, 148 67" />
    <path d="M316 152 C343 122, 360 102, 377 82" />
    <path d="M196 152 C169 122, 152 102, 135 82" />
    <path d="M326 162 C355 132, 375 112, 395 92" />
    <path d="M186 162 C157 132, 137 112, 117 92" />
    
    <!-- Additional flowing variations -->
    <path d="M261 120 C260 142, 259 164, 258 186" />
    <path d="M251 120 C252 142, 253 164, 254 186" />
    <path d="M271 123 C267 147, 264 171, 261 195" />
    <path d="M241 123 C245 147, 248 171, 251 195" />
    <path d="M281 127 C274 152, 269 177, 264 202" />
    <path d="M231 127 C238 152, 243 177, 248 202" />
    <path d="M291 133 C282 158, 275 183, 268 208" />
    <path d="M221 133 C230 158, 237 183, 244 208" />
    
    <!-- Additional side flowing variations -->
    <path d="M341 175 C375 145, 395 125, 415 105" />
    <path d="M171 175 C137 145, 117 125, 97 105" />
    <path d="M351 195 C390 170, 415 145, 430 120" />
    <path d="M161 195 C122 170, 97 145, 82 120" />
    <path d="M361 220 C405 210, 425 200, 445 190" />
    <path d="M151 220 C107 210, 87 200, 67 190" />
    <path d="M371 250 C415 250, 435 250, 455 250" />
    <path d="M141 250 C97 250, 77 250, 57 250" />
    <path d="M371 280 C415 290, 435 300, 455 310" />
    <path d="M141 280 C97 290, 77 300, 57 310" />
    <path d="M361 310 C405 330, 425 350, 445 370" />
    <path d="M151 310 C107 330, 87 350, 67 370" />
  </g>
</svg> 