<svg width="512" height="512" viewBox="0 0 512 512" fill="none" xmlns="http://www.w3.org/2000/svg">
  <!-- Stubble hair - very short dots -->
  <g fill="#8B4513">
    <!-- Top of head -->
    <circle cx="256" cy="120" r="3" />
    <circle cx="276" cy="125" r="3" />
    <circle cx="236" cy="125" r="3" />
    <circle cx="296" cy="135" r="3" />
    <circle cx="216" cy="135" r="3" />
    <circle cx="316" cy="150" r="3" />
    <circle cx="196" cy="150" r="3" />
    <circle cx="336" cy="170" r="3" />
    <circle cx="176" cy="170" r="3" />
    
    <!-- Sides of head -->
    <circle cx="356" cy="200" r="3" />
    <circle cx="156" cy="200" r="3" />
    <circle cx="366" cy="230" r="3" />
    <circle cx="146" cy="230" r="3" />
    <circle cx="376" cy="260" r="3" />
    <circle cx="136" cy="260" r="3" />
    
    <!-- Back of head -->
    <circle cx="376" cy="290" r="3" />
    <circle cx="136" cy="290" r="3" />
    <circle cx="366" cy="320" r="3" />
    <circle cx="146" cy="320" r="3" />
    
    <!-- Additional stubble for better coverage -->
    <circle cx="266" cy="120" r="3" />
    <circle cx="246" cy="120" r="3" />
    <circle cx="286" cy="130" r="3" />
    <circle cx="226" cy="130" r="3" />
    <circle cx="306" cy="145" r="3" />
    <circle cx="206" cy="145" r="3" />
    <circle cx="326" cy="165" r="3" />
    <circle cx="186" cy="165" r="3" />
    <circle cx="346" cy="190" r="3" />
    <circle cx="166" cy="190" r="3" />
  </g>
</svg> 